STARTFONT 2.1
FONT -Adobe-Courier-Bold-O-Normal--24-240-75-75-M-150-iso10646-0400
SIZE 24 75 75
FONTBOUNDINGBOX 19 25 -1 -5
COMMENT $XConsortium: courBO24.bdf,v 1.11 95/01/26 18:00:31 gildea Exp $
COMMENT 
COMMENT +
COMMENT  Copyright 1984-1989, 1994 Adobe Systems Incorporated.
COMMENT  Copyright 1988, 1994 Digital Equipment Corporation.
COMMENT
COMMENT  Adobe is a trademark of Adobe Systems Incorporated which may be
COMMENT  registered in certain jurisdictions.
COMMENT  Permission to use these trademarks is hereby granted only in
COMMENT  association with the images described in this file.
COMMENT
COMMENT  Permission to use, copy, modify, distribute and sell this software
COMMENT  and its documentation for any purpose and without fee is hereby
COMMENT  granted, provided that the above copyright notices appear in all
COMMENT  copies and that both those copyright notices and this permission
COMMENT  notice appear in supporting documentation, and that the names of
COMMENT  Adobe Systems and Digital Equipment Corporation not be used in
COMMENT  advertising or publicity pertaining to distribution of the software
COMMENT  without specific, written prior permission.  Adobe Systems and
COMMENT  Digital Equipment Corporation make no representations about the
COMMENT  suitability of this software for any purpose.  It is provided "as
COMMENT  is" without express or implied warranty.
COMMENT -
STARTPROPERTIES 32
FOUNDRY "Adobe"
FAMILY_NAME "Courier"
WEIGHT_NAME "Bold"
SLANT "O"
SETWIDTH_NAME "Normal"
ADD_STYLE_NAME ""
PIXEL_SIZE 24
POINT_SIZE 240
RESOLUTION_X 75
RESOLUTION_Y 75
SPACING "M"
AVERAGE_WIDTH 150
CHARSET_REGISTRY "iso10646"
CHARSET_ENCODING "0400"
CAP_HEIGHT 15
X_HEIGHT 11
FONT_ASCENT 19
FONT_DESCENT 5
FACE_NAME "Courier Bold Oblique"
COPYRIGHT "Copyright (c) 1984, 1987 Adobe Systems Incorporated. All Rights Reserved. Copyright (c) 1988, 1991 Digital Equipment Corporation. All Rights Reserved."
NOTICE "No mark"
_DEC_DEVICE_FONTNAMES "PS=Courier-BoldOblique"

STARTCHAR space
ENCODING 32
SWIDTH 600 0
DWIDTH 15 0
BBX 0 0 0 0
BITMAP
ENDCHAR
STARTCHAR exclam
ENCODING 33
SWIDTH 600 0
DWIDTH 15 0
BBX 6 16 6 0
BITMAP
0C
1C
1C
3C
38
38
30
70
60
60
60
40
00
00
C0
C0
ENDCHAR
STARTCHAR quotedbl
ENCODING 34
SWIDTH 600 0
DWIDTH 15 0
BBX 8 7 6 8
BITMAP
E7
E7
E7
C6
C6
84
84
ENDCHAR
STARTCHAR numbersign
ENCODING 35
SWIDTH 600 0
DWIDTH 15 0
BBX 13 19 2 -2
BITMAP
0198
0198
0330
0330
0660
0660
3FF8
3FF8
0CC0
1980
1980
FFE0
FFE0
3300
3300
6600
6600
CC00
CC00
ENDCHAR
STARTCHAR dollar
ENCODING 36
SWIDTH 600 0
DWIDTH 15 0
BBX 12 19 2 -2
BITMAP
0180
0180
0FB0
1FF0
3870
3030
3800
1E00
0F80
03C0
00E0
0060
C060
E0E0
FFC0
DF80
0C00
0C00
0C00
ENDCHAR
STARTCHAR percent
ENCODING 37
SWIDTH 600 0
DWIDTH 15 0
BBX 14 15 2 0
BITMAP
0780
0CC0
18C0
18C0
1980
0F1C
00F0
0780
3C00
E3C0
0660
0C60
0C60
0CC0
0780
ENDCHAR
STARTCHAR ampersand
ENCODING 38
SWIDTH 600 0
DWIDTH 15 0
BBX 11 14 2 0
BITMAP
03C0
07E0
0E60
1C00
1800
1800
1C00
3E60
67E0
C3C0
C180
C3C0
FFE0
7E60
ENDCHAR
STARTCHAR quotesingle
ENCODING 39
SWIDTH 600 0
DWIDTH 15 0
BBX 4 7 7 8
BITMAP
70
70
70
70
E0
E0
E0
ENDCHAR
STARTCHAR parenleft
ENCODING 40
SWIDTH 600 0
DWIDTH 15 0
BBX 9 20 6 -4
BITMAP
0380
0600
0C00
1800
1800
3000
3000
6000
6000
6000
C000
C000
C000
C000
C000
C000
C000
6000
6000
3000
ENDCHAR
STARTCHAR parenright
ENCODING 41
SWIDTH 600 0
DWIDTH 15 0
BBX 8 20 2 -4
BITMAP
0C
06
06
03
03
03
03
03
03
03
06
06
06
0C
0C
18
18
30
60
C0
ENDCHAR
STARTCHAR asterisk
ENCODING 42
SWIDTH 600 0
DWIDTH 15 0
BBX 10 10 5 7
BITMAP
0C00
0C00
CCC0
EDC0
3F00
0C00
3E00
6300
E300
C300
ENDCHAR
STARTCHAR plus
ENCODING 43
SWIDTH 600 0
DWIDTH 15 0
BBX 13 14 2 0
BITMAP
0180
0180
0180
0300
0300
0300
FFF8
FFF8
0600
0600
0C00
0C00
0C00
0C00
ENDCHAR
STARTCHAR comma
ENCODING 44
SWIDTH 600 0
DWIDTH 15 0
BBX 5 6 4 -3
BITMAP
38
38
70
60
C0
80
ENDCHAR
STARTCHAR minus
ENCODING 45
SWIDTH 600 0
DWIDTH 15 0
BBX 13 2 2 6
BITMAP
FFF8
FFF8
ENDCHAR
STARTCHAR period
ENCODING 46
SWIDTH 600 0
DWIDTH 15 0
BBX 3 3 5 0
BITMAP
E0
E0
E0
ENDCHAR
STARTCHAR slash
ENCODING 47
SWIDTH 600 0
DWIDTH 15 0
BBX 19 18 -1 -2
BITMAP
000060
0000C0
000180
000300
000600
000C00
001800
003000
006000
00C000
018000
030000
060000
0C0000
180000
300000
600000
C00000
ENDCHAR
STARTCHAR zero
ENCODING 48
SWIDTH 600 0
DWIDTH 15 0
BBX 12 16 3 0
BITMAP
07C0
0FE0
1830
3030
3030
6030
6030
6030
C060
C060
C060
C0C0
C0C0
C180
7F00
3E00
ENDCHAR
STARTCHAR one
ENCODING 49
SWIDTH 600 0
DWIDTH 15 0
BBX 10 16 2 0
BITMAP
0180
1F80
1F80
0180
0300
0300
0300
0600
0600
0600
0600
0C00
0C00
0C00
FFC0
FFC0
ENDCHAR
STARTCHAR two
ENCODING 50
SWIDTH 600 0
DWIDTH 15 0
BBX 14 16 1 0
BITMAP
01F8
07FC
0E0C
0C0C
0C0C
001C
0038
0070
01E0
03C0
0700
1E00
3800
7000
FFE0
FFE0
ENDCHAR
STARTCHAR three
ENCODING 51
SWIDTH 600 0
DWIDTH 15 0
BBX 14 16 1 0
BITMAP
01F0
07F8
0E1C
0C0C
000C
001C
0078
03F0
03E0
0070
0030
0030
C070
E0E0
7FE0
3F80
ENDCHAR
STARTCHAR four
ENCODING 52
SWIDTH 600 0
DWIDTH 15 0
BBX 11 16 2 0
BITMAP
00E0
01E0
0360
0660
0CC0
0CC0
18C0
30C0
3180
6180
FFE0
FFE0
0300
0300
1FC0
1FC0
ENDCHAR
STARTCHAR five
ENCODING 53
SWIDTH 600 0
DWIDTH 15 0
BBX 13 16 2 0
BITMAP
0FF8
0FF8
0C00
0C00
1800
1BC0
1FE0
1C70
0030
0030
0030
0030
C070
E0E0
7FC0
3F80
ENDCHAR
STARTCHAR six
ENCODING 54
SWIDTH 600 0
DWIDTH 15 0
BBX 13 16 3 0
BITMAP
00F8
03F8
0780
0E00
1C00
3800
3780
7FC0
60E0
E060
C060
C060
E0E0
71C0
7F80
1F00
ENDCHAR
STARTCHAR seven
ENCODING 55
SWIDTH 600 0
DWIDTH 15 0
BBX 10 16 5 0
BITMAP
7FC0
FFC0
C180
0180
0300
0300
0600
0600
0C00
0C00
1800
1800
3000
3000
6000
6000
ENDCHAR
STARTCHAR eight
ENCODING 56
SWIDTH 600 0
DWIDTH 15 0
BBX 13 16 2 0
BITMAP
03E0
0FF0
1C38
1818
3018
3030
1860
1FC0
3FC0
60E0
C060
C060
C060
E0C0
7F80
3F00
ENDCHAR
STARTCHAR nine
ENCODING 57
SWIDTH 600 0
DWIDTH 15 0
BBX 12 16 3 0
BITMAP
03C0
0FE0
1C60
3830
7030
6030
6030
6070
70E0
3FE0
1EC0
01C0
0380
0700
FE00
F800
ENDCHAR
STARTCHAR colon
ENCODING 58
SWIDTH 600 0
DWIDTH 15 0
BBX 5 11 5 0
BITMAP
38
38
38
00
00
00
00
00
E0
E0
E0
ENDCHAR
STARTCHAR semicolon
ENCODING 59
SWIDTH 600 0
DWIDTH 15 0
BBX 6 14 4 -3
BITMAP
1C
1C
1C
00
00
00
00
00
38
38
70
60
C0
80
ENDCHAR
STARTCHAR less
ENCODING 60
SWIDTH 600 0
DWIDTH 15 0
BBX 15 11 2 2
BITMAP
001E
0078
01E0
0780
1E00
7800
F000
3C00
0F00
03C0
00F0
ENDCHAR
STARTCHAR equal
ENCODING 61
SWIDTH 600 0
DWIDTH 15 0
BBX 13 6 2 4
BITMAP
7FF8
7FF8
0000
0000
FFF0
FFF0
ENDCHAR
STARTCHAR greater
ENCODING 62
SWIDTH 600 0
DWIDTH 15 0
BBX 15 11 1 2
BITMAP
1E00
0780
01E0
0078
001E
003C
00F0
03C0
0F00
3C00
F000
ENDCHAR
STARTCHAR question
ENCODING 63
SWIDTH 600 0
DWIDTH 15 0
BBX 10 15 5 0
BITMAP
3F00
7F80
61C0
C0C0
C0C0
01C0
0380
0F00
1C00
3800
3000
0000
0000
6000
6000
ENDCHAR
STARTCHAR at
ENCODING 64
SWIDTH 600 0
DWIDTH 15 0
BBX 12 18 2 -2
BITMAP
03C0
0FE0
0C30
1830
1830
31F0
33E0
6660
6460
6CC0
CCC0
CFE0
C7E0
C000
C000
6180
7F00
1E00
ENDCHAR
STARTCHAR A
ENCODING 65
SWIDTH 600 0
DWIDTH 15 0
BBX 14 15 0 0
BITMAP
07E0
07E0
00E0
01E0
01B0
0330
0630
0630
0C30
1FF8
1FF8
3018
3018
FCFC
FCFC
ENDCHAR
STARTCHAR B
ENCODING 66
SWIDTH 600 0
DWIDTH 15 0
BBX 15 15 0 0
BITMAP
1FF8
1FFC
0606
0606
0C06
0C0C
0FF8
0FF8
181C
180C
180C
3018
3038
FFF0
FFE0
ENDCHAR
STARTCHAR C
ENCODING 67
SWIDTH 600 0
DWIDTH 15 0
BBX 15 15 1 0
BITMAP
03F6
0FFE
1E0E
380C
700C
6000
E000
C000
C000
C000
C000
E030
7070
7FE0
1F80
ENDCHAR
STARTCHAR D
ENCODING 68
SWIDTH 600 0
DWIDTH 15 0
BBX 16 15 0 0
BITMAP
1FFC
1FFE
0607
0603
0C03
0C03
0C03
1803
1806
1806
300C
300C
3038
FFF0
FFE0
ENDCHAR
STARTCHAR E
ENCODING 69
SWIDTH 600 0
DWIDTH 15 0
BBX 15 15 0 0
BITMAP
1FFE
1FFE
0606
060C
0C0C
0C60
0C60
0FE0
1FC0
18C0
18CC
300C
3018
FFF8
FFF8
ENDCHAR
STARTCHAR F
ENCODING 70
SWIDTH 600 0
DWIDTH 15 0
BBX 16 15 0 0
BITMAP
1FFF
1FFF
0603
0606
0C06
0C60
0C60
0FE0
1FC0
18C0
18C0
3000
3000
FF00
FF00
ENDCHAR
STARTCHAR G
ENCODING 71
SWIDTH 600 0
DWIDTH 15 0
BBX 15 15 1 0
BITMAP
03F6
0FFE
1E0E
380C
700C
6000
E000
C000
C1F8
C1F8
C018
E030
7070
7FE0
1FC0
ENDCHAR
STARTCHAR H
ENCODING 72
SWIDTH 600 0
DWIDTH 15 0
BBX 17 15 0 0
BITMAP
1F9F80
1F9F80
060600
060600
0C0C00
0C0C00
0FFC00
0FFC00
181800
181800
181800
303000
303000
FCFC00
FCFC00
ENDCHAR
STARTCHAR I
ENCODING 73
SWIDTH 600 0
DWIDTH 15 0
BBX 13 15 2 0
BITMAP
1FF8
1FF8
0180
0180
0300
0300
0300
0600
0600
0600
0C00
0C00
0C00
FFC0
FFC0
ENDCHAR
STARTCHAR J
ENCODING 74
SWIDTH 600 0
DWIDTH 15 0
BBX 16 15 1 0
BITMAP
03FF
03FF
0018
0018
0018
0030
0030
0030
0060
6060
6060
C0C0
E1C0
7F80
3F00
ENDCHAR
STARTCHAR K
ENCODING 75
SWIDTH 600 0
DWIDTH 15 0
BBX 16 15 0 0
BITMAP
1F9F
1F9F
0618
0630
0C60
0CC0
0F80
1F80
19C0
18C0
30E0
3060
3070
FC3C
FC3C
ENDCHAR
STARTCHAR L
ENCODING 76
SWIDTH 600 0
DWIDTH 15 0
BBX 13 15 1 0
BITMAP
1FE0
1FE0
0300
0300
0600
0600
0600
0C00
0C00
0C00
1818
1818
1830
FFF0
FFF0
ENDCHAR
STARTCHAR M
ENCODING 77
SWIDTH 600 0
DWIDTH 15 0
BBX 17 15 0 0
BITMAP
1E0780
1E0F80
0E0F00
0E1B00
1E3600
1B3600
1B6600
336C00
33CC00
318C00
619800
601800
601800
F87C00
F87C00
ENDCHAR
STARTCHAR N
ENCODING 78
SWIDTH 600 0
DWIDTH 15 0
BBX 16 15 0 0
BITMAP
1E1F
1E1F
0E06
0E06
1B0C
1B0C
1B0C
198C
3198
3198
30D8
60D8
60F0
F870
F870
ENDCHAR
STARTCHAR O
ENCODING 79
SWIDTH 600 0
DWIDTH 15 0
BBX 14 15 1 0
BITMAP
03E0
0FF8
1C38
381C
700C
600C
E00C
C00C
C01C
C018
C038
E070
71E0
7FC0
1F00
ENDCHAR
STARTCHAR P
ENCODING 80
SWIDTH 600 0
DWIDTH 15 0
BBX 16 15 0 0
BITMAP
1FF8
1FFE
0607
0603
0C03
0C03
0C06
180E
1FFC
1FF0
1800
3000
3000
FF00
FF00
ENDCHAR
STARTCHAR Q
ENCODING 81
SWIDTH 600 0
DWIDTH 15 0
BBX 14 18 1 -3
BITMAP
03E0
0FF8
1C38
381C
700C
600C
E00C
C00C
C01C
C018
C038
E070
71E0
7FC0
1F00
7860
FFE0
E780
ENDCHAR
STARTCHAR R
ENCODING 82
SWIDTH 600 0
DWIDTH 15 0
BBX 15 15 0 0
BITMAP
1FF0
1FFC
060E
0606
0C06
0C0E
0C1C
1FF8
1FE0
18E0
1860
3070
3030
FC3C
FC3C
ENDCHAR
STARTCHAR S
ENCODING 83
SWIDTH 600 0
DWIDTH 15 0
BBX 15 15 1 0
BITMAP
03F6
0FFE
0E0E
1C0C
180C
1E00
0F80
03E0
00F0
0038
6018
6018
7038
FFF0
CFE0
ENDCHAR
STARTCHAR T
ENCODING 84
SWIDTH 600 0
DWIDTH 15 0
BBX 13 15 3 0
BITMAP
7FF8
7FF8
6318
C330
C630
C630
0600
0C00
0C00
0C00
1800
1800
1800
FF00
FF00
ENDCHAR
STARTCHAR U
ENCODING 85
SWIDTH 600 0
DWIDTH 15 0
BBX 14 15 3 0
BITMAP
7C7C
7C7C
3018
3018
6030
6030
6030
6030
C060
C060
C060
C0C0
E1C0
7F80
3F00
ENDCHAR
STARTCHAR V
ENCODING 86
SWIDTH 600 0
DWIDTH 15 0
BBX 14 15 3 0
BITMAP
F87C
F87C
6018
6030
6030
6060
6060
30C0
3180
3180
3300
3600
1E00
1C00
1800
ENDCHAR
STARTCHAR W
ENCODING 87
SWIDTH 600 0
DWIDTH 15 0
BBX 15 15 2 0
BITMAP
7C3E
7C3E
300C
318C
3398
6398
6798
67B0
6DB0
6DB0
D9E0
D9E0
F1C0
F1C0
E1C0
ENDCHAR
STARTCHAR X
ENCODING 88
SWIDTH 600 0
DWIDTH 15 0
BBX 17 15 0 0
BITMAP
1F9F80
1F9F80
0E0E00
061C00
033800
03F000
01E000
03C000
07C000
0E6000
1C7000
383000
703800
FCFC00
FCFC00
ENDCHAR
STARTCHAR Y
ENCODING 89
SWIDTH 600 0
DWIDTH 15 0
BBX 14 15 3 0
BITMAP
FCFC
FCFC
7038
3070
38E0
19C0
1B80
0F00
0E00
0C00
0C00
1800
1800
FF00
FF00
ENDCHAR
STARTCHAR Z
ENCODING 90
SWIDTH 600 0
DWIDTH 15 0
BBX 14 15 2 0
BITMAP
1FFC
1FFC
1838
3070
30E0
01C0
0380
0700
0E00
1C00
3830
7030
E060
FFE0
FFE0
ENDCHAR
STARTCHAR bracketleft
ENCODING 91
SWIDTH 600 0
DWIDTH 15 0
BBX 10 20 5 -4
BITMAP
07C0
07C0
0C00
0C00
0C00
1800
1800
1800
1800
3000
3000
3000
6000
6000
6000
6000
C000
C000
F800
F800
ENDCHAR
STARTCHAR backslash
ENCODING 92
SWIDTH 600 0
DWIDTH 15 0
BBX 6 20 6 -3
BITMAP
C0
C0
C0
C0
60
60
60
60
30
30
30
30
18
18
18
18
0C
0C
0C
0C
ENDCHAR
STARTCHAR bracketright
ENCODING 93
SWIDTH 600 0
DWIDTH 15 0
BBX 9 20 2 -4
BITMAP
0F80
0F80
0180
0180
0300
0300
0300
0300
0600
0600
0600
0600
0C00
0C00
0C00
0C00
1800
1800
F800
F800
ENDCHAR
STARTCHAR asciicircum
ENCODING 94
SWIDTH 600 0
DWIDTH 15 0
BBX 9 8 4 8
BITMAP
0300
0300
0700
0F00
1900
3180
6180
C180
ENDCHAR
STARTCHAR underscore
ENCODING 95
SWIDTH 600 0
DWIDTH 15 0
BBX 15 2 0 -4
BITMAP
FFFE
FFFE
ENDCHAR
STARTCHAR grave
ENCODING 96
SWIDTH 600 0
DWIDTH 15 0
BBX 5 4 7 11
BITMAP
C0
60
30
18
ENDCHAR
STARTCHAR a
ENCODING 97
SWIDTH 600 0
DWIDTH 15 0
BBX 12 11 1 0
BITMAP
0FC0
1FE0
1870
0030
0FF0
3FE0
7060
C0C0
C1C0
FFF0
7EF0
ENDCHAR
STARTCHAR b
ENCODING 98
SWIDTH 600 0
DWIDTH 15 0
BBX 14 16 0 0
BITMAP
1E00
1E00
0600
0600
0600
0DF0
0FF8
0E1C
0C0C
180C
180C
180C
3818
3C38
FFF0
F7C0
ENDCHAR
STARTCHAR c
ENCODING 99
SWIDTH 600 0
DWIDTH 15 0
BBX 13 11 2 0
BITMAP
0FD8
3FF8
7070
6030
C030
C000
C000
C000
E070
7FF0
3FC0
ENDCHAR
STARTCHAR d
ENCODING 100
SWIDTH 600 0
DWIDTH 15 0
BBX 13 16 2 0
BITMAP
0078
0078
0018
0018
0030
0F30
3FB0
70F0
6060
C060
C060
C0C0
C0C0
E1C0
7FF0
3EF0
ENDCHAR
STARTCHAR e
ENCODING 101
SWIDTH 600 0
DWIDTH 15 0
BBX 12 11 2 0
BITMAP
0FC0
3FE0
7070
6030
C030
FFF0
FFF0
C000
E060
7FE0
3F80
ENDCHAR
STARTCHAR f
ENCODING 102
SWIDTH 600 0
DWIDTH 15 0
BBX 14 16 2 0
BITMAP
007C
01FC
0380
0300
0300
3FF0
3FF0
0600
0600
0C00
0C00
0C00
1800
1800
FFC0
FFC0
ENDCHAR
STARTCHAR g
ENCODING 103
SWIDTH 600 0
DWIDTH 15 0
BBX 14 16 2 -5
BITMAP
0FBC
3FFC
70F0
6060
C060
C060
C060
C0C0
E1C0
7FC0
3EC0
0180
0180
0380
FF00
FE00
ENDCHAR
STARTCHAR h
ENCODING 104
SWIDTH 600 0
DWIDTH 15 0
BBX 14 16 0 0
BITMAP
1F00
1F00
0300
0600
0600
0DF0
0FF8
0E1C
0C0C
180C
1818
1818
3030
3030
FCFC
FCFC
ENDCHAR
STARTCHAR i
ENCODING 105
SWIDTH 600 0
DWIDTH 15 0
BBX 10 16 2 0
BITMAP
01C0
03C0
0380
0000
0000
1F00
1F00
0300
0300
0600
0600
0600
0C00
0C00
FFC0
FFC0
ENDCHAR
STARTCHAR j
ENCODING 106
SWIDTH 600 0
DWIDTH 15 0
BBX 12 21 0 -5
BITMAP
0070
00F0
00E0
0000
0000
1FE0
1FE0
0060
0060
00C0
00C0
00C0
0180
0180
0180
0300
0300
0300
0600
FE00
FC00
ENDCHAR
STARTCHAR k
ENCODING 107
SWIDTH 600 0
DWIDTH 15 0
BBX 13 16 1 0
BITMAP
1E00
1E00
0600
0600
0C00
0C78
0C78
18E0
19C0
1F80
1F00
3380
31C0
30E0
F0F8
F0F8
ENDCHAR
STARTCHAR l
ENCODING 108
SWIDTH 600 0
DWIDTH 15 0
BBX 10 16 2 0
BITMAP
0F80
0F80
0180
0180
0300
0300
0300
0600
0600
0600
0600
0C00
0C00
0C00
FFC0
FFC0
ENDCHAR
STARTCHAR m
ENCODING 109
SWIDTH 600 0
DWIDTH 15 0
BBX 16 11 0 0
BITMAP
3BDE
3FFF
0E73
0C63
18C6
18C6
18C6
318C
318C
F9EF
F9EF
ENDCHAR
STARTCHAR n
ENCODING 110
SWIDTH 600 0
DWIDTH 15 0
BBX 14 11 0 0
BITMAP
3CF0
3DF8
0F1C
0E0C
180C
1818
1818
3030
3030
FCFC
FCFC
ENDCHAR
STARTCHAR o
ENCODING 111
SWIDTH 600 0
DWIDTH 15 0
BBX 12 11 2 0
BITMAP
0FC0
3FE0
7070
6030
C030
C030
C030
C060
E0E0
7FC0
3F00
ENDCHAR
STARTCHAR p
ENCODING 112
SWIDTH 600 0
DWIDTH 15 0
BBX 15 16 -1 -5
BITMAP
1EF8
1FFC
070E
0606
0C06
0C06
0C06
1C0C
1E1C
1BF8
19E0
3000
3000
3000
FE00
FE00
ENDCHAR
STARTCHAR q
ENCODING 113
SWIDTH 600 0
DWIDTH 15 0
BBX 14 16 2 -5
BITMAP
0FBC
3FFC
70F0
6070
C060
C060
C060
C0C0
E1C0
7FC0
3EC0
0180
0180
0180
0FE0
0FE0
ENDCHAR
STARTCHAR r
ENCODING 114
SWIDTH 600 0
DWIDTH 15 0
BBX 14 11 1 0
BITMAP
1EF8
1FFC
070C
0600
0C00
0C00
0C00
1800
1800
FFC0
FFC0
ENDCHAR
STARTCHAR s
ENCODING 115
SWIDTH 600 0
DWIDTH 15 0
BBX 12 11 2 0
BITMAP
0FB0
1FF0
3860
3860
1E00
0F80
03C0
60E0
60E0
FFC0
DF80
ENDCHAR
STARTCHAR t
ENCODING 116
SWIDTH 600 0
DWIDTH 15 0
BBX 10 15 3 0
BITMAP
0C00
0C00
1800
1800
FFC0
FFC0
3000
6000
6000
6000
C000
C000
E180
7F80
3E00
ENDCHAR
STARTCHAR u
ENCODING 117
SWIDTH 600 0
DWIDTH 15 0
BBX 12 11 2 0
BITMAP
F0F0
F0F0
3030
6030
6060
6060
C060
C0C0
E1C0
7FF0
3EF0
ENDCHAR
STARTCHAR v
ENCODING 118
SWIDTH 600 0
DWIDTH 15 0
BBX 14 11 2 0
BITMAP
FCFC
FCFC
3030
3060
1860
18C0
1980
1980
0F00
0E00
0C00
ENDCHAR
STARTCHAR w
ENCODING 119
SWIDTH 600 0
DWIDTH 15 0
BBX 14 11 2 0
BITMAP
F87C
F87C
6318
6318
6730
6730
6F60
6B60
79C0
71C0
6180
ENDCHAR
STARTCHAR x
ENCODING 120
SWIDTH 600 0
DWIDTH 15 0
BBX 14 11 1 0
BITMAP
3E7C
3E7C
1830
0C60
06C0
0780
0F00
1980
30C0
F9F0
F9F0
ENDCHAR
STARTCHAR y
ENCODING 121
SWIDTH 600 0
DWIDTH 15 0
BBX 15 16 0 -5
BITMAP
1F3E
1F3E
0C0C
0C18
0C38
0630
0660
06C0
03C0
0380
0300
0600
0C00
1800
FE00
FE00
ENDCHAR
STARTCHAR z
ENCODING 122
SWIDTH 600 0
DWIDTH 15 0
BBX 11 11 2 0
BITMAP
3FE0
3FE0
31C0
3380
0700
0E00
1C00
38C0
70C0
FFC0
FFC0
ENDCHAR
STARTCHAR braceleft
ENCODING 123
SWIDTH 600 0
DWIDTH 15 0
BBX 9 20 5 -4
BITMAP
0380
0600
0C00
1800
1800
1800
1800
3000
E000
6000
3000
3000
6000
6000
6000
C000
C000
C000
6000
3800
ENDCHAR
STARTCHAR bar
ENCODING 124
SWIDTH 600 0
DWIDTH 15 0
BBX 7 18 5 -2
BITMAP
06
06
06
0C
0C
0C
18
18
18
30
30
30
60
60
60
C0
C0
C0
ENDCHAR
STARTCHAR braceright
ENCODING 125
SWIDTH 600 0
DWIDTH 15 0
BBX 10 20 2 -4
BITMAP
0600
0300
0180
0180
0180
0300
0300
0300
0180
01C0
0300
0600
0C00
0C00
0C00
0C00
1800
1800
3000
E000
ENDCHAR
STARTCHAR asciitilde
ENCODING 126
SWIDTH 600 0
DWIDTH 15 0
BBX 14 4 2 5
BITMAP
1E0C
3F18
67F0
C3E0
ENDCHAR
STARTCHAR space
ENCODING 160
SWIDTH 600 0
DWIDTH 15 0
BBX 0 0 0 0
BITMAP
ENDCHAR
STARTCHAR exclamdown
ENCODING 161
SWIDTH 600 0
DWIDTH 15 0
BBX 6 16 3 -5
BITMAP
0C
0C
00
00
08
18
18
18
38
30
70
70
F0
E0
E0
C0
ENDCHAR
STARTCHAR cent
ENCODING 162
SWIDTH 600 0
DWIDTH 15 0
BBX 11 16 3 0
BITMAP
0600
0600
0600
1F60
3FE0
71C0
60C0
C000
C000
C000
E180
7F80
3E00
1800
1800
1800
ENDCHAR
STARTCHAR sterling
ENCODING 163
SWIDTH 600 0
DWIDTH 15 0
BBX 13 15 1 0
BITMAP
01F0
03F8
0718
0600
0C00
0C00
0C00
7FC0
7FC0
0C00
1C00
3800
7030
FFF0
FFE0
ENDCHAR
STARTCHAR currency
ENCODING 164
SWIDTH 600 0
DWIDTH 15 0
BBX 13 11 2 2
BITMAP
1818
1FF8
1FF0
3870
3030
6030
6070
70E0
7FC0
FFC0
C0C0
ENDCHAR
STARTCHAR yen
ENCODING 165
SWIDTH 600 0
DWIDTH 15 0
BBX 13 15 3 0
BITMAP
7CF8
7CF8
3070
30E0
19C0
1B80
0F00
0E00
7F80
0C00
7F80
1800
1800
FF00
FF00
ENDCHAR
STARTCHAR brokenbar
ENCODING 166
SWIDTH 600 0
DWIDTH 15 0
BBX 7 18 5 -2
BITMAP
06
06
06
0C
0C
0C
18
18
00
00
30
30
60
60
60
C0
C0
C0
ENDCHAR
STARTCHAR section
ENCODING 167
SWIDTH 600 0
DWIDTH 15 0
BBX 15 18 1 -2
BITMAP
01FE
03FE
070C
060C
0F00
1F80
31C0
30E0
3870
1C38
0E18
0738
03F0
01E0
60C0
61C0
FF80
FF00
ENDCHAR
STARTCHAR dieresis
ENCODING 168
SWIDTH 600 0
DWIDTH 15 0
BBX 7 2 6 12
BITMAP
C6
C6
ENDCHAR
STARTCHAR copyright
ENCODING 169
SWIDTH 600 0
DWIDTH 15 0
BBX 15 14 1 1
BITMAP
03E0
0FF8
3C1C
33CC
6FE6
6C66
D806
D806
D8CC
CFCC
6718
7078
3FE0
0F80
ENDCHAR
STARTCHAR ordfeminine
ENCODING 170
SWIDTH 600 0
DWIDTH 15 0
BBX 9 11 4 4
BITMAP
0F00
1980
0180
1F80
3300
6300
6780
3D80
0000
FF00
FF00
ENDCHAR
STARTCHAR guillemotleft
ENCODING 171
SWIDTH 600 0
DWIDTH 15 0
BBX 15 9 1 1
BITMAP
0186
071C
1C70
71C0
E380
6180
30C0
1860
0C30
ENDCHAR
STARTCHAR logicalnot
ENCODING 172
SWIDTH 600 0
DWIDTH 15 0
BBX 12 6 2 4
BITMAP
FFF0
FFF0
0060
0060
00C0
00C0
ENDCHAR
STARTCHAR hyphen
ENCODING 173
SWIDTH 600 0
DWIDTH 15 0
BBX 12 2 3 6
BITMAP
7FF0
FFE0
ENDCHAR
STARTCHAR registered
ENCODING 174
SWIDTH 600 0
DWIDTH 15 0
BBX 15 14 1 1
BITMAP
03E0
0FF8
3C1C
37CC
67E6
6666
C6C6
CF86
CFCC
CCCC
6CD8
7078
3FE0
0F80
ENDCHAR
STARTCHAR macron
ENCODING 175
SWIDTH 600 0
DWIDTH 15 0
BBX 7 1 7 13
BITMAP
FE
ENDCHAR
STARTCHAR degree
ENCODING 176
SWIDTH 600 0
DWIDTH 15 0
BBX 8 7 5 9
BITMAP
1E
63
C1
81
83
C6
78
ENDCHAR
STARTCHAR plusminus
ENCODING 177
SWIDTH 600 0
DWIDTH 15 0
BBX 15 14 0 0
BITMAP
0060
0060
00C0
00C0
3FFE
3FFE
0180
0180
0300
0300
0000
0000
FFF8
FFF8
ENDCHAR
STARTCHAR twosuperior
ENCODING 178
SWIDTH 600 0
DWIDTH 15 0
BBX 8 9 5 7
BITMAP
1E
73
63
06
0C
18
30
62
FE
ENDCHAR
STARTCHAR threesuperior
ENCODING 179
SWIDTH 600 0
DWIDTH 15 0
BBX 8 9 4 7
BITMAP
1E
73
63
06
1C
06
C6
CC
78
ENDCHAR
STARTCHAR acute
ENCODING 180
SWIDTH 600 0
DWIDTH 15 0
BBX 5 4 8 11
BITMAP
18
30
60
C0
ENDCHAR
STARTCHAR mu
ENCODING 181
SWIDTH 600 0
DWIDTH 15 0
BBX 14 16 0 -5
BITMAP
3C3C
3C3C
0C0C
180C
1818
1818
3018
3030
3870
7FFC
7FBC
6000
E000
C000
C000
C000
ENDCHAR
STARTCHAR paragraph
ENCODING 182
SWIDTH 600 0
DWIDTH 15 0
BBX 15 18 2 -2
BITMAP
07FE
1FFE
39B0
71B0
71B0
7360
7360
3B60
0F60
06C0
06C0
06C0
06C0
0D80
0D80
0D80
FFC0
FFC0
ENDCHAR
STARTCHAR periodcentered
ENCODING 183
SWIDTH 600 0
DWIDTH 15 0
BBX 4 4 6 5
BITMAP
70
F0
F0
E0
ENDCHAR
STARTCHAR cedilla
ENCODING 184
SWIDTH 600 0
DWIDTH 15 0
BBX 5 6 3 -5
BITMAP
18
30
78
18
F8
70
ENDCHAR
STARTCHAR onesuperior
ENCODING 185
SWIDTH 600 0
DWIDTH 15 0
BBX 8 9 4 7
BITMAP
06
3E
0C
0C
0C
18
18
18
FF
ENDCHAR
STARTCHAR ordmasculine
ENCODING 186
SWIDTH 600 0
DWIDTH 15 0
BBX 10 11 4 4
BITMAP
0F00
3F80
30C0
60C0
60C0
6180
3F80
1E00
0000
FF00
FF00
ENDCHAR
STARTCHAR guillemotright
ENCODING 187
SWIDTH 600 0
DWIDTH 15 0
BBX 14 9 2 1
BITMAP
30C0
1860
0C30
0618
071C
0E38
38E0
6380
C600
ENDCHAR
STARTCHAR onequarter
ENCODING 188
SWIDTH 600 0
DWIDTH 15 0
BBX 17 17 0 -1
BITMAP
060000
3E0000
0E0180
0C0300
0C0600
0C0C00
181800
183000
FF6600
00CE00
019600
032400
064C00
0C8C00
18FE00
301800
003C00
ENDCHAR
STARTCHAR onehalf
ENCODING 189
SWIDTH 600 0
DWIDTH 15 0
BBX 16 17 0 -1
BITMAP
0600
3E00
0E03
0C06
0C0C
0C18
1830
1860
FFDE
01B3
0323
0606
0C0C
1818
3030
6062
00FE
ENDCHAR
STARTCHAR threequarters
ENCODING 190
SWIDTH 600 0
DWIDTH 15 0
BBX 16 17 1 -1
BITMAP
1E00
7300
6303
0606
1C0C
0618
C630
CC60
78CC
019C
032C
0648
0C98
1918
31FC
6030
0078
ENDCHAR
STARTCHAR questiondown
ENCODING 191
SWIDTH 600 0
DWIDTH 15 0
BBX 10 15 1 -4
BITMAP
0180
0180
0000
0000
0300
0300
0700
0E00
3C00
7000
E0C0
C0C0
E1C0
7F80
3F00
ENDCHAR
STARTCHAR Agrave
ENCODING 192
SWIDTH 600 0
DWIDTH 15 0
BBX 14 25 0 -5
BITMAP
0600
0300
0180
00C0
0000
07E0
07E0
01E0
01B0
0330
0630
0630
0C30
0C38
1FF8
1FF8
3018
3018
FCFC
FCFC
0000
0000
0000
0000
0600
ENDCHAR
STARTCHAR Aacute
ENCODING 193
SWIDTH 600 0
DWIDTH 15 0
BBX 14 20 0 0
BITMAP
000C
0018
0030
0060
0000
07E0
07E0
01E0
01B0
0330
0630
0630
0C30
0C38
1FF8
1FF8
3018
3018
FCFC
FCFC
ENDCHAR
STARTCHAR Acircumflex
ENCODING 194
SWIDTH 600 0
DWIDTH 15 0
BBX 14 20 0 0
BITMAP
0040
00E0
01B0
0330
0000
07E0
07E0
01E0
01B0
0330
0630
0630
0C30
0C38
1FF8
1FF8
3018
3018
FCFC
FCFC
ENDCHAR
STARTCHAR Atilde
ENCODING 195
SWIDTH 600 0
DWIDTH 15 0
BBX 14 19 0 0
BITMAP
01CC
03F8
0670
0000
07E0
07E0
01E0
01B0
0330
0630
0630
0C30
0C38
1FF8
1FF8
3018
3018
FCFC
FCFC
ENDCHAR
STARTCHAR Adieresis
ENCODING 196
SWIDTH 600 0
DWIDTH 15 0
BBX 14 18 0 0
BITMAP
0318
0318
0000
07E0
07E0
01E0
01B0
0330
0630
0630
0C30
0C38
1FF8
1FF8
3018
3018
FCFC
FCFC
ENDCHAR
STARTCHAR Aring
ENCODING 197
SWIDTH 600 0
DWIDTH 15 0
BBX 14 20 0 0
BITMAP
0060
0090
0090
0060
0000
07E0
07E0
01E0
01B0
0330
0630
0630
0C30
0C38
1FF8
1FF8
3018
3018
FCFC
FCFC
ENDCHAR
STARTCHAR AE
ENCODING 198
SWIDTH 600 0
DWIDTH 15 0
BBX 19 15 -1 0
BITMAP
03FFE0
03FFE0
00D8C0
0198C0
01B000
033000
063300
067F00
0C7E00
1FE600
1FC000
30C300
30C300
FBFE00
FBFE00
ENDCHAR
STARTCHAR Ccedilla
ENCODING 199
SWIDTH 600 0
DWIDTH 15 0
BBX 15 20 1 -5
BITMAP
03F6
0FFE
1E0E
380C
700C
6000
E000
C000
C000
C000
C000
E030
7070
7FE0
1F80
0600
0F00
0300
1F00
0E00
ENDCHAR
STARTCHAR Egrave
ENCODING 200
SWIDTH 600 0
DWIDTH 15 0
BBX 15 20 0 0
BITMAP
0300
0180
00C0
0060
0000
1FFE
1FFE
060C
060C
0C0C
0C60
0C60
0FE0
1FC0
18C0
18CC
300C
3018
FFF8
FFF8
ENDCHAR
STARTCHAR Eacute
ENCODING 201
SWIDTH 600 0
DWIDTH 15 0
BBX 15 20 0 0
BITMAP
0018
0030
0060
00C0
0000
1FFE
1FFE
060C
060C
0C0C
0C60
0C60
0FE0
1FC0
18C0
18CC
300C
3018
FFF8
FFF8
ENDCHAR
STARTCHAR Ecircumflex
ENCODING 202
SWIDTH 600 0
DWIDTH 15 0
BBX 15 20 0 0
BITMAP
0040
00E0
01B0
0330
0000
1FFE
1FFE
060C
060C
0C0C
0C60
0C60
0FE0
1FC0
18C0
18CC
300C
3018
FFF8
FFF8
ENDCHAR
STARTCHAR Edieresis
ENCODING 203
SWIDTH 600 0
DWIDTH 15 0
BBX 15 18 0 0
BITMAP
0318
0318
0000
1FFE
1FFE
060C
060C
0C0C
0C60
0C60
0FE0
1FC0
18C0
18CC
300C
3018
FFF8
FFF8
ENDCHAR
STARTCHAR Igrave
ENCODING 204
SWIDTH 600 0
DWIDTH 15 0
BBX 13 20 2 0
BITMAP
0C00
0600
0300
0180
0000
1FF8
1FF8
0180
0180
0300
0300
0300
0600
0600
0600
0C00
0C00
0C00
FFC0
FFC0
ENDCHAR
STARTCHAR Iacute
ENCODING 205
SWIDTH 600 0
DWIDTH 15 0
BBX 13 20 2 0
BITMAP
0030
0060
00C0
0180
0000
1FF8
1FF8
0180
0180
0300
0300
0300
0600
0600
0600
0C00
0C00
0C00
FFC0
FFC0
ENDCHAR
STARTCHAR Icircumflex
ENCODING 206
SWIDTH 600 0
DWIDTH 15 0
BBX 13 20 2 0
BITMAP
0080
01C0
0360
0660
0000
1FF8
1FF8
0180
0180
0300
0300
0300
0600
0600
0600
0C00
0C00
0C00
FFC0
FFC0
ENDCHAR
STARTCHAR Idieresis
ENCODING 207
SWIDTH 600 0
DWIDTH 15 0
BBX 13 18 2 0
BITMAP
0630
0630
0000
1FF8
1FF8
0180
0180
0300
0300
0300
0600
0600
0600
0C00
0C00
0C00
FFC0
FFC0
ENDCHAR
STARTCHAR Eth
ENCODING 208
SWIDTH 600 0
DWIDTH 15 0
BBX 16 15 0 0
BITMAP
1FFC
1FFE
0607
0603
0C03
0C03
3F03
3F03
1806
1806
300C
300C
3038
FFF0
FFE0
ENDCHAR
STARTCHAR Ntilde
ENCODING 209
SWIDTH 600 0
DWIDTH 15 0
BBX 16 19 0 0
BITMAP
01CC
03F8
0670
0000
1E1F
1E1F
0E06
1B0C
1B0C
1B0C
1B0C
318C
3198
3198
30D8
60D8
60F0
F870
F870
ENDCHAR
STARTCHAR Ograve
ENCODING 210
SWIDTH 600 0
DWIDTH 15 0
BBX 14 20 1 0
BITMAP
0C00
0600
0300
0180
0000
07E0
0FF8
1C3C
301C
301C
600C
E00C
C00C
C01C
C018
C038
E070
71E0
7FC0
1F00
ENDCHAR
STARTCHAR Oacute
ENCODING 211
SWIDTH 600 0
DWIDTH 15 0
BBX 14 20 1 0
BITMAP
0030
0060
00C0
0180
0000
07E0
0FF8
1C3C
301C
301C
600C
E00C
C00C
C01C
C018
C038
E070
71E0
7FC0
1F00
ENDCHAR
STARTCHAR Ocircumflex
ENCODING 212
SWIDTH 600 0
DWIDTH 15 0
BBX 14 20 1 0
BITMAP
0080
01C0
0360
0660
0000
07E0
0FF8
1C3C
301C
301C
600C
E00C
C00C
C01C
C018
C038
E070
71E0
7FC0
1F00
ENDCHAR
STARTCHAR Otilde
ENCODING 213
SWIDTH 600 0
DWIDTH 15 0
BBX 14 19 1 0
BITMAP
0398
07F0
0CE0
0000
07E0
0FF8
1C3C
301C
301C
600C
E00C
C00C
C01C
C018
C038
E070
71E0
7FC0
1F00
ENDCHAR
STARTCHAR Odieresis
ENCODING 214
SWIDTH 600 0
DWIDTH 15 0
BBX 14 18 1 0
BITMAP
0630
0630
0000
07E0
0FF8
1C3C
301C
301C
600C
E00C
C00C
C01C
C018
C038
E070
71E0
7FC0
1F00
ENDCHAR
STARTCHAR multiply
ENCODING 215
SWIDTH 600 0
DWIDTH 15 0
BBX 13 12 1 1
BITMAP
3018
3838
1C70
0EE0
07C0
0380
0780
0FC0
1CE0
3870
7038
E018
ENDCHAR
STARTCHAR Oslash
ENCODING 216
SWIDTH 600 0
DWIDTH 15 0
BBX 15 17 1 -1
BITMAP
0006
01FC
07FC
0E1C
1C3E
3866
30C6
7186
6186
630E
660C
6C1C
7838
38F0
3FE0
6F80
C000
ENDCHAR
STARTCHAR Ugrave
ENCODING 217
SWIDTH 600 0
DWIDTH 15 0
BBX 14 20 3 0
BITMAP
0C00
0600
0300
0180
0000
7C7C
7C7C
3018
3018
6030
6030
6030
C030
C060
C060
C060
C0C0
E1C0
7F80
3F00
ENDCHAR
STARTCHAR Uacute
ENCODING 218
SWIDTH 600 0
DWIDTH 15 0
BBX 14 20 3 0
BITMAP
0030
0060
00C0
0180
0000
7C7C
7C7C
3018
3018
6030
6030
6030
C030
C060
C060
C060
C0C0
E1C0
7F80
3F00
ENDCHAR
STARTCHAR Ucircumflex
ENCODING 219
SWIDTH 600 0
DWIDTH 15 0
BBX 14 20 3 0
BITMAP
0100
0380
06C0
0CC0
0000
7C7C
7C7C
3018
3018
6030
6030
6030
C030
C060
C060
C060
C0C0
E1C0
7F80
3F00
ENDCHAR
STARTCHAR Udieresis
ENCODING 220
SWIDTH 600 0
DWIDTH 15 0
BBX 14 18 3 0
BITMAP
0C60
0C60
0000
7C7C
7C7C
3018
3018
6030
6030
6030
C030
C060
C060
C060
C0C0
E1C0
7F80
3F00
ENDCHAR
STARTCHAR Yacute
ENCODING 221
SWIDTH 600 0
DWIDTH 15 0
BBX 14 20 3 0
BITMAP
0060
00C0
0180
0300
0000
FCFC
FCF8
3070
38E0
39C0
1B80
1F00
0E00
0C00
0C00
0C00
1800
1800
FF00
FF00
ENDCHAR
STARTCHAR Thorn
ENCODING 222
SWIDTH 600 0
DWIDTH 15 0
BBX 16 15 0 0
BITMAP
1F80
1F80
0600
07F8
0FFE
0C07
0C03
1803
1806
1FFE
3FF8
3000
3000
FC00
FC00
ENDCHAR
STARTCHAR germandbls
ENCODING 223
SWIDTH 600 0
DWIDTH 15 0
BBX 13 16 1 0
BITMAP
00F0
03F8
0718
0618
0618
0C30
0DE0
0DF0
0C38
1818
1818
1818
3018
3330
FBF0
F9E0
ENDCHAR
STARTCHAR agrave
ENCODING 224
SWIDTH 600 0
DWIDTH 15 0
BBX 12 16 1 0
BITMAP
1800
0C00
0600
0300
0000
0FC0
1FE0
1870
0030
0FF0
3FE0
7060
C0C0
C1C0
FFF0
7EF0
ENDCHAR
STARTCHAR aacute
ENCODING 225
SWIDTH 600 0
DWIDTH 15 0
BBX 12 16 1 0
BITMAP
0060
00C0
0180
0300
0000
0FC0
1FE0
1870
0030
0FF0
3FE0
7060
C0C0
C1C0
FFF0
7EF0
ENDCHAR
STARTCHAR acircumflex
ENCODING 226
SWIDTH 600 0
DWIDTH 15 0
BBX 12 16 1 0
BITMAP
0080
01C0
0360
0660
0000
0FC0
1FE0
1870
0030
0FF0
3FE0
7060
C0C0
C1C0
FFF0
7EF0
ENDCHAR
STARTCHAR atilde
ENCODING 227
SWIDTH 600 0
DWIDTH 15 0
BBX 13 15 1 0
BITMAP
0398
07F0
0CE0
0000
0FC0
1FE0
1870
0030
0FF0
3FE0
7060
C0C0
C1C0
FFF0
7EF0
ENDCHAR
STARTCHAR adieresis
ENCODING 228
SWIDTH 600 0
DWIDTH 15 0
BBX 12 14 1 0
BITMAP
0C60
0C60
0000
0FC0
1FE0
1870
0030
0FF0
3FE0
7060
C0C0
C1C0
FFF0
7EF0
ENDCHAR
STARTCHAR aring
ENCODING 229
SWIDTH 600 0
DWIDTH 15 0
BBX 12 16 1 0
BITMAP
0180
0240
0240
0180
0000
0FC0
1FE0
1870
0030
0FF0
3FE0
7060
C0C0
C1C0
FFF0
7EF0
ENDCHAR
STARTCHAR ae
ENCODING 230
SWIDTH 600 0
DWIDTH 15 0
BBX 15 11 0 0
BITMAP
0F38
3FFC
31CE
0186
1FFE
7FFE
6380
C300
C78C
FFFC
7CF0
ENDCHAR
STARTCHAR ccedilla
ENCODING 231
SWIDTH 600 0
DWIDTH 15 0
BBX 13 16 2 -5
BITMAP
0FD8
3FF8
7070
6030
C030
C000
C000
C000
E070
7FF0
3FC0
0C00
1E00
0600
3E00
1C00
ENDCHAR
STARTCHAR egrave
ENCODING 232
SWIDTH 600 0
DWIDTH 15 0
BBX 12 16 2 0
BITMAP
1800
0C00
0600
0300
0000
0FC0
3FE0
7070
6030
C030
FFF0
FFF0
C000
E060
7FE0
3F80
ENDCHAR
STARTCHAR eacute
ENCODING 233
SWIDTH 600 0
DWIDTH 15 0
BBX 12 16 2 0
BITMAP
0060
00C0
0180
0300
0000
0FC0
3FE0
7070
6030
C030
FFF0
FFF0
C000
E060
7FE0
3F80
ENDCHAR
STARTCHAR ecircumflex
ENCODING 234
SWIDTH 600 0
DWIDTH 15 0
BBX 12 16 2 0
BITMAP
0200
0700
0D80
1980
0000
0FC0
3FE0
7070
6030
C030
FFF0
FFF0
C000
E060
7FE0
3F80
ENDCHAR
STARTCHAR edieresis
ENCODING 235
SWIDTH 600 0
DWIDTH 15 0
BBX 12 14 2 0
BITMAP
18C0
18C0
0000
0FC0
3FE0
7070
6030
C030
FFF0
FFF0
C000
E060
7FE0
3F80
ENDCHAR
STARTCHAR igrave
ENCODING 236
SWIDTH 600 0
DWIDTH 15 0
BBX 10 16 2 0
BITMAP
1800
0C00
0600
0300
0000
1F00
1F00
0300
0300
0600
0600
0600
0C00
0C00
FFC0
FFC0
ENDCHAR
STARTCHAR iacute
ENCODING 237
SWIDTH 600 0
DWIDTH 15 0
BBX 11 16 2 0
BITMAP
0060
00C0
0180
0300
0000
1F00
1F00
0300
0300
0600
0600
0600
0C00
0C00
FFC0
FFC0
ENDCHAR
STARTCHAR icircumflex
ENCODING 238
SWIDTH 600 0
DWIDTH 15 0
BBX 10 16 2 0
BITMAP
0100
0380
06C0
0CC0
0000
1F00
1F00
0300
0300
0600
0600
0600
0C00
0C00
FFC0
FFC0
ENDCHAR
STARTCHAR idieresis
ENCODING 239
SWIDTH 600 0
DWIDTH 15 0
BBX 11 14 2 0
BITMAP
0C60
0C60
0000
1F00
1F00
0300
0300
0600
0600
0600
0C00
0C00
FFC0
FFC0
ENDCHAR
STARTCHAR eth
ENCODING 240
SWIDTH 600 0
DWIDTH 15 0
BBX 12 17 2 0
BITMAP
7C70
7FF0
0780
1FC0
7CE0
7060
0FF0
3FF0
7070
6030
C030
C030
C030
C060
E0E0
7FC0
3F00
ENDCHAR
STARTCHAR ntilde
ENCODING 241
SWIDTH 600 0
DWIDTH 15 0
BBX 15 15 0 0
BITMAP
00E6
01FC
0338
0000
3CF0
3DF8
0F1C
0E0C
180C
1818
1818
3030
3030
FCFC
FCFC
ENDCHAR
STARTCHAR ograve
ENCODING 242
SWIDTH 600 0
DWIDTH 15 0
BBX 12 16 2 0
BITMAP
1800
0C00
0600
0300
0000
0FC0
3FE0
7070
6030
C030
C030
C030
C060
E0E0
7FC0
3F00
ENDCHAR
STARTCHAR oacute
ENCODING 243
SWIDTH 600 0
DWIDTH 15 0
BBX 12 16 2 0
BITMAP
0060
00C0
0180
0300
0000
0FC0
3FE0
7070
6030
C030
C030
C030
C060
E0E0
7FC0
3F00
ENDCHAR
STARTCHAR ocircumflex
ENCODING 244
SWIDTH 600 0
DWIDTH 15 0
BBX 12 15 2 0
BITMAP
0380
06C0
0CC0
0000
0FC0
3FE0
7070
6030
C030
C030
C030
C060
E0E0
7FC0
3F00
ENDCHAR
STARTCHAR otilde
ENCODING 245
SWIDTH 600 0
DWIDTH 15 0
BBX 12 15 2 0
BITMAP
0730
0FE0
19C0
0000
0FC0
3FE0
7070
6030
C030
C030
C030
C060
E0E0
7FC0
3F00
ENDCHAR
STARTCHAR odieresis
ENCODING 246
SWIDTH 600 0
DWIDTH 15 0
BBX 12 14 2 0
BITMAP
0C60
0C60
0000
0FC0
3FE0
7070
6030
C030
C030
C030
C060
E0E0
7FC0
3F00
ENDCHAR
STARTCHAR divide
ENCODING 247
SWIDTH 600 0
DWIDTH 15 0
BBX 12 12 2 1
BITMAP
0380
0380
0380
0000
0000
FFF0
FFF0
0000
0000
1C00
1C00
1C00
ENDCHAR
STARTCHAR oslash
ENCODING 248
SWIDTH 600 0
DWIDTH 15 0
BBX 14 13 1 -1
BITMAP
000C
07F8
1FF0
3878
30D8
6198
6318
6618
6C30
7870
3FE0
7F80
C000
ENDCHAR
STARTCHAR ugrave
ENCODING 249
SWIDTH 600 0
DWIDTH 15 0
BBX 12 16 2 0
BITMAP
1800
0C00
0600
0300
0000
F0F0
F0F0
3030
6030
6060
6060
C060
C0C0
E1C0
7FF0
3EF0
ENDCHAR
STARTCHAR uacute
ENCODING 250
SWIDTH 600 0
DWIDTH 15 0
BBX 12 16 2 0
BITMAP
00C0
0180
0300
0600
0000
F0F0
F0F0
3030
6030
6060
6060
C060
C0C0
E1C0
7FF0
3EF0
ENDCHAR
STARTCHAR ucircumflex
ENCODING 251
SWIDTH 600 0
DWIDTH 15 0
BBX 12 16 2 0
BITMAP
0200
0700
0D80
1980
0000
F0F0
F0F0
3030
6030
6060
6060
C060
C0C0
E1C0
7FF0
3EF0
ENDCHAR
STARTCHAR udieresis
ENCODING 252
SWIDTH 600 0
DWIDTH 15 0
BBX 12 14 2 0
BITMAP
18C0
18C0
0000
F0F0
F0F0
3030
6030
6060
6060
C060
C0C0
E1C0
7FF0
3EF0
ENDCHAR
STARTCHAR yacute
ENCODING 253
SWIDTH 600 0
DWIDTH 15 0
BBX 15 21 0 -5
BITMAP
0018
0030
0060
00C0
0000
1F3E
1F3E
0C0C
0C18
0C38
0630
0660
06C0
03C0
0380
0300
0600
0C00
1800
FE00
FE00
ENDCHAR
STARTCHAR thorn
ENCODING 254
SWIDTH 600 0
DWIDTH 15 0
BBX 15 21 -1 -5
BITMAP
0F00
0F00
0300
0300
0300
06F8
07FC
070E
0606
0C06
0C06
0C06
1C0C
1E1C
1BF8
19E0
3000
3000
3000
FE00
FE00
ENDCHAR
STARTCHAR ydieresis
ENCODING 255
SWIDTH 600 0
DWIDTH 15 0
BBX 15 19 0 -5
BITMAP
0318
0318
0000
1F3E
1F3E
0C0C
0C18
0C38
0630
0660
06C0
03C0
0380
0300
0600
0C00
1800
FE00
FE00
ENDCHAR
STARTCHAR uni0400
ENCODING 1024
SWIDTH 600 0
DWIDTH 15 0
BBX 15 20 0 0
BITMAP
0300
0180
00C0
0060
0000
1FFE
1FFE
060C
060C
0C0C
0C60
0C60
0FE0
1FC0
18C0
18CC
300C
3018
FFF8
FFF8
ENDCHAR
STARTCHAR afii10023
ENCODING 1025
SWIDTH 600 0
DWIDTH 15 0
BBX 15 18 0 0
BITMAP
0318
0318
0000
1FFE
1FFE
060C
060C
0C0C
0C60
0C60
0FE0
1FC0
18C0
18CC
300C
3018
FFF8
FFF8
ENDCHAR
STARTCHAR afii10053
ENCODING 1028
SWIDTH 600 0
DWIDTH 15 0
BBX 15 15 1 0
BITMAP
03F6
0FFE
1E0E
380C
700C
6000
FF80
FF80
C000
C000
C000
E030
7070
7FE0
1F80
ENDCHAR
STARTCHAR afii10054
ENCODING 1029
SWIDTH 600 0
DWIDTH 15 0
BBX 15 15 1 0
BITMAP
03F6
0FFE
0E0E
1C0C
180C
1E00
0F80
03E0
00F0
0038
6018
6018
7038
FFF0
CFE0
ENDCHAR
STARTCHAR afii10055
ENCODING 1030
SWIDTH 600 0
DWIDTH 15 0
BBX 13 15 2 0
BITMAP
1FF8
1FF8
0180
0180
0300
0300
0300
0600
0600
0600
0C00
0C00
0C00
FFC0
FFC0
ENDCHAR
STARTCHAR afii10056
ENCODING 1031
SWIDTH 600 0
DWIDTH 15 0
BBX 13 18 2 0
BITMAP
0630
0630
0000
1FF8
1FF8
0180
0180
0300
0300
0300
0600
0600
0600
0C00
0C00
0C00
FFC0
FFC0
ENDCHAR
STARTCHAR afii10057
ENCODING 1032
SWIDTH 600 0
DWIDTH 15 0
BBX 16 15 1 0
BITMAP
03FF
03FF
0018
0018
0018
0030
0030
0030
0060
6060
6060
C0C0
E1C0
7F80
3F00
ENDCHAR
STARTCHAR afii10062
ENCODING 1038
SWIDTH 600 0
DWIDTH 15 0
BBX 16 19 1 0
BITMAP
0318
03F8
01E0
0000
3E1F
3E1F
180E
180C
1818
0C38
0C70
0CE0
0DC0
0780
0700
0E00
DC00
F800
7000
ENDCHAR
STARTCHAR afii10017
ENCODING 1040
SWIDTH 600 0
DWIDTH 15 0
BBX 14 15 0 0
BITMAP
07E0
07E0
00E0
01E0
01B0
0330
0630
0630
0C30
1FF8
1FF8
3018
3018
FCFC
FCFC
ENDCHAR
STARTCHAR afii10018
ENCODING 1041
SWIDTH 600 0
DWIDTH 15 0
BBX 15 15 0 0
BITMAP
1FFE
1FFE
0606
060C
0C0C
0C00
0FF0
0FF8
181C
180C
180C
3018
3038
FFF0
FFE0
ENDCHAR
STARTCHAR afii10019
ENCODING 1042
SWIDTH 600 0
DWIDTH 15 0
BBX 15 15 0 0
BITMAP
1FF8
1FFC
0606
0606
0C06
0C0C
0FF8
0FF8
181C
180C
180C
3018
3038
FFF0
FFE0
ENDCHAR
STARTCHAR afii10020
ENCODING 1043
SWIDTH 600 0
DWIDTH 15 0
BBX 16 15 0 0
BITMAP
1FFF
1FFF
0603
0606
0C06
0C00
0C00
0C00
1800
1800
1800
3000
3000
FF00
FF00
ENDCHAR
STARTCHAR afii10021
ENCODING 1044
SWIDTH 600 0
DWIDTH 15 0
BBX 18 18 -1 -3
BITMAP
07FFC0
07FFC0
018300
018300
030600
030600
030600
030600
060C00
060C00
0C0C00
0C1800
181800
7FFE00
7FFE00
600600
C00C00
C00C00
ENDCHAR
STARTCHAR afii10022
ENCODING 1045
SWIDTH 600 0
DWIDTH 15 0
BBX 15 15 0 0
BITMAP
1FFE
1FFE
0606
060C
0C0C
0C60
0C60
0FE0
1FC0
18C0
18CC
300C
3018
FFF8
FFF8
ENDCHAR
STARTCHAR afii10024
ENCODING 1046
SWIDTH 600 0
DWIDTH 15 0
BBX 19 15 0 0
BITMAP
1E79E0
1E79E0
063380
073700
036600
036C00
01FC00
03F800
07F800
0ED800
0CDC00
198C00
398C00
F3C700
E3C700
ENDCHAR
STARTCHAR afii10025
ENCODING 1047
SWIDTH 600 0
DWIDTH 15 0
BBX 13 15 2 0
BITMAP
1BE0
1FF0
3818
3018
3018
0030
07E0
07E0
0070
0030
0030
C060
E0E0
7FC0
3F80
ENDCHAR
STARTCHAR afii10026
ENCODING 1048
SWIDTH 600 0
DWIDTH 15 0
BBX 16 15 0 0
BITMAP
1F0F
1F1F
0C3E
0C3E
186C
18EC
19CC
198C
3398
3718
3618
7E30
7C30
F8F8
F0F8
ENDCHAR
STARTCHAR afii10027
ENCODING 1049
SWIDTH 600 0
DWIDTH 15 0
BBX 16 19 0 0
BITMAP
018C
01FC
00F0
0000
1F0F
1F1F
0C3E
0C3E
186C
18EC
19CC
198C
3398
3718
3618
7E30
7C30
F8F8
F0F8
ENDCHAR
STARTCHAR afii10028
ENCODING 1050
SWIDTH 600 0
DWIDTH 15 0
BBX 16 15 0 0
BITMAP
1F9F
1F9F
0618
0630
0C60
0CC0
0F80
1F80
19C0
18C0
30E0
3060
3070
FC3C
FC3C
ENDCHAR
STARTCHAR afii10029
ENCODING 1051
SWIDTH 600 0
DWIDTH 15 0
BBX 18 15 -1 0
BITMAP
07FFC0
07FFC0
018300
018300
030600
030600
030600
030600
060C00
060C00
060C00
0C1800
DC1800
F87E00
707E00
ENDCHAR
STARTCHAR afii10030
ENCODING 1052
SWIDTH 600 0
DWIDTH 15 0
BBX 17 15 0 0
BITMAP
1E0780
1E0F80
0E0F00
0E1B00
1E3600
1B3600
1B6600
336C00
33CC00
318C00
619800
601800
601800
F87C00
F87C00
ENDCHAR
STARTCHAR afii10031
ENCODING 1053
SWIDTH 600 0
DWIDTH 15 0
BBX 17 15 0 0
BITMAP
1F9F80
1F9F80
060600
060600
0C0C00
0C0C00
0FFC00
0FFC00
181800
181800
181800
303000
303000
FCFC00
FCFC00
ENDCHAR
STARTCHAR afii10032
ENCODING 1054
SWIDTH 600 0
DWIDTH 15 0
BBX 14 15 1 0
BITMAP
03E0
0FF8
1C38
381C
700C
600C
E00C
C00C
C01C
C018
C038
E070
71E0
7FC0
1F00
ENDCHAR
STARTCHAR afii10033
ENCODING 1055
SWIDTH 600 0
DWIDTH 15 0
BBX 17 15 0 0
BITMAP
1FFF80
1FFF80
060600
060600
0C0C00
0C0C00
0C0C00
0C0C00
181800
181800
181800
303000
303000
FCFC00
FCFC00
ENDCHAR
STARTCHAR afii10034
ENCODING 1056
SWIDTH 600 0
DWIDTH 15 0
BBX 16 15 0 0
BITMAP
1FF8
1FFE
0607
0603
0C03
0C03
0C06
180E
1FFC
1FF0
1800
3000
3000
FF00
FF00
ENDCHAR
STARTCHAR afii10035
ENCODING 1057
SWIDTH 600 0
DWIDTH 15 0
BBX 15 15 1 0
BITMAP
03F6
0FFE
1E0E
380C
700C
6000
E000
C000
C000
C000
C000
E030
7070
7FE0
1F80
ENDCHAR
STARTCHAR afii10036
ENCODING 1058
SWIDTH 600 0
DWIDTH 15 0
BBX 13 15 3 0
BITMAP
7FF8
7FF8
6318
C330
C630
C630
0600
0C00
0C00
0C00
1800
1800
1800
FF00
FF00
ENDCHAR
STARTCHAR afii10037
ENCODING 1059
SWIDTH 600 0
DWIDTH 15 0
BBX 16 15 1 0
BITMAP
3E1F
3E1F
180E
180C
1818
0C38
0C70
0CE0
0DC0
0780
0700
0E00
DC00
F800
7000
ENDCHAR
STARTCHAR afii10038
ENCODING 1060
SWIDTH 600 0
DWIDTH 15 0
BBX 15 15 1 0
BITMAP
03F0
00C0
0FF8
3FFC
718E
6186
C186
C306
C30C
E31C
7FF8
3FE0
0600
1F80
1F80
ENDCHAR
STARTCHAR afii10039
ENCODING 1061
SWIDTH 600 0
DWIDTH 15 0
BBX 17 15 0 0
BITMAP
1F9F80
1F9F80
0E0E00
061C00
033800
03F000
01E000
03C000
07C000
0E6000
1C7000
383000
703800
FCFC00
FCFC00
ENDCHAR
STARTCHAR afii10040
ENCODING 1062
SWIDTH 600 0
DWIDTH 15 0
BBX 17 18 0 -3
BITMAP
1F9F80
1F9F80
060600
060600
0C0C00
0C0C00
0C0C00
0C0C00
181800
181800
181800
303000
303000
FFFC00
FFFC00
000C00
001800
001800
ENDCHAR
STARTCHAR afii10041
ENCODING 1063
SWIDTH 600 0
DWIDTH 15 0
BBX 13 15 4 0
BITMAP
F8F8
F8F8
6030
6030
C060
C060
C0E0
E1E0
7FC0
3EC0
00C0
0180
0180
07E0
07E0
ENDCHAR
STARTCHAR afii10042
ENCODING 1064
SWIDTH 600 0
DWIDTH 15 0
BBX 17 15 0 0
BITMAP
1EF780
1EF780
0C6300
0C6300
18C600
18C600
18C600
18C600
318C00
318C00
318C00
631800
631800
FFFC00
FFFC00
ENDCHAR
STARTCHAR afii10043
ENCODING 1065
SWIDTH 600 0
DWIDTH 15 0
BBX 17 18 0 -3
BITMAP
1EF780
1EF780
0C6300
0C6300
18C600
18C600
18C600
18C600
318C00
318C00
318C00
631800
631800
FFFC00
FFFC00
000C00
001800
001800
ENDCHAR
STARTCHAR afii10044
ENCODING 1066
SWIDTH 600 0
DWIDTH 15 0
BBX 14 15 1 0
BITMAP
7F80
7F80
6600
C600
CC00
0C00
0FF0
0FF8
181C
180C
180C
3018
3038
FFF0
FFE0
ENDCHAR
STARTCHAR afii10045
ENCODING 1067
SWIDTH 600 0
DWIDTH 15 0
BBX 18 15 0 0
BITMAP
1F07C0
1F07C0
0C0180
0C0180
180300
180300
1F8300
1FC300
30E600
306600
306600
60CC00
61CC00
FFBE00
FF3E00
ENDCHAR
STARTCHAR afii10046
ENCODING 1068
SWIDTH 600 0
DWIDTH 15 0
BBX 14 15 0 0
BITMAP
1F80
1F80
0600
0600
0C00
0C00
0FF0
0FF8
181C
180C
180C
3018
3038
FFF0
FFE0
ENDCHAR
STARTCHAR afii10047
ENCODING 1069
SWIDTH 600 0
DWIDTH 15 0
BBX 13 15 2 0
BITMAP
1BC0
1FF0
3870
3038
3018
0018
07F8
07F8
0038
0030
0070
C0E0
E3C0
7F80
3E00
ENDCHAR
STARTCHAR afii10048
ENCODING 1070
SWIDTH 600 0
DWIDTH 15 0
BBX 16 15 0 0
BITMAP
1E3C
1E7E
0CE6
0CC3
1983
1983
1F83
1F03
3306
3306
3306
630C
619C
F1F8
F0F0
ENDCHAR
STARTCHAR afii10049
ENCODING 1071
SWIDTH 600 0
DWIDTH 15 0
BBX 17 15 0 0
BITMAP
03FF80
07FF80
0E0600
0C0600
180C00
180C00
1C0C00
0FF800
07F800
071800
0E1800
1C3000
383000
F0FC00
F0FC00
ENDCHAR
STARTCHAR afii10065
ENCODING 1072
SWIDTH 600 0
DWIDTH 15 0
BBX 12 11 1 0
BITMAP
0FC0
1FE0
1870
0030
0FF0
3FE0
7060
C0C0
C1C0
FFF0
7EF0
ENDCHAR
STARTCHAR afii10066
ENCODING 1073
SWIDTH 600 0
DWIDTH 15 0
BBX 14 16 2 0
BITMAP
000C
01FC
07F0
0E00
1800
3FC0
3FE0
7870
6030
C030
C030
C030
C060
E0E0
7FC0
3F00
ENDCHAR
STARTCHAR afii10067
ENCODING 1074
SWIDTH 600 0
DWIDTH 15 0
BBX 13 11 1 0
BITMAP
3FF0
3FF8
0C18
0C38
1FF0
1FE0
1870
3030
3070
FFE0
FFC0
ENDCHAR
STARTCHAR afii10068
ENCODING 1075
SWIDTH 600 0
DWIDTH 15 0
BBX 13 11 2 0
BITMAP
3FF8
3FF8
0C18
0C18
1800
1800
1800
3000
3000
FE00
FE00
ENDCHAR
STARTCHAR afii10069
ENCODING 1076
SWIDTH 600 0
DWIDTH 15 0
BBX 17 13 -1 -2
BITMAP
07FF80
07FF80
018600
018600
030C00
030C00
060C00
0C1800
181800
7FFE00
7FFE00
C00C00
C00C00
ENDCHAR
STARTCHAR afii10070
ENCODING 1077
SWIDTH 600 0
DWIDTH 15 0
BBX 12 11 2 0
BITMAP
0FC0
3FE0
7070
6030
C030
FFF0
FFF0
C000
E060
7FE0
3F80
ENDCHAR
STARTCHAR afii10072
ENCODING 1078
SWIDTH 600 0
DWIDTH 15 0
BBX 18 11 0 0
BITMAP
3CF3C0
3CF3C0
0E6700
076E00
03F800
07F800
0ED800
1D9800
398C00
F3CF00
E3C700
ENDCHAR
STARTCHAR afii10073
ENCODING 1079
SWIDTH 600 0
DWIDTH 15 0
BBX 12 11 2 0
BITMAP
37E0
3FF0
7830
6070
07E0
07C0
00E0
0060
C0E0
FFC0
7F80
ENDCHAR
STARTCHAR afii10074
ENCODING 1080
SWIDTH 600 0
DWIDTH 15 0
BBX 16 11 0 0
BITMAP
3F1F
3F3F
0C7C
0CEC
19D8
1998
1B98
3730
3E30
FCFC
F8FC
ENDCHAR
STARTCHAR afii10075
ENCODING 1081
SWIDTH 600 0
DWIDTH 15 0
BBX 16 15 0 0
BITMAP
0198
01F8
00F0
0000
3F1F
3F3F
0C7C
0CEC
19D8
1998
1B98
3730
3E30
FCFC
F8FC
ENDCHAR
STARTCHAR afii10076
ENCODING 1082
SWIDTH 600 0
DWIDTH 15 0
BBX 13 11 1 0
BITMAP
3E78
3E78
18E0
19C0
1F80
1F00
3380
31C0
30E0
FCF8
FCF8
ENDCHAR
STARTCHAR afii10077
ENCODING 1083
SWIDTH 600 0
DWIDTH 15 0
BBX 16 11 0 0
BITMAP
0FFF
0FFF
030C
030C
0618
0618
0618
0C30
DC30
F8FC
70FC
ENDCHAR
STARTCHAR afii10078
ENCODING 1084
SWIDTH 600 0
DWIDTH 15 0
BBX 16 11 0 0
BITMAP
3C0F
3C1F
1E3E
1E36
366C
36EC
33CC
6398
6318
F87C
F87C
ENDCHAR
STARTCHAR afii10079
ENCODING 1085
SWIDTH 600 0
DWIDTH 15 0
BBX 16 11 0 0
BITMAP
3F3F
3F3F
0C0C
0C0C
1FF8
1FF8
1818
3030
3030
FCFC
FCFC
ENDCHAR
STARTCHAR afii10080
ENCODING 1086
SWIDTH 600 0
DWIDTH 15 0
BBX 12 11 2 0
BITMAP
0FC0
3FE0
7070
6030
C030
C030
C030
C060
E0E0
7FC0
3F00
ENDCHAR
STARTCHAR afii10081
ENCODING 1087
SWIDTH 600 0
DWIDTH 15 0
BBX 16 11 0 0
BITMAP
3FFF
3FFF
0C0C
0C0C
1818
1818
1818
3030
3030
FCFC
FCFC
ENDCHAR
STARTCHAR afii10082
ENCODING 1088
SWIDTH 600 0
DWIDTH 15 0
BBX 15 16 -1 -5
BITMAP
1EF8
1FFC
070E
0606
0C06
0C06
0C06
1C0C
1E1C
1BF8
19E0
3000
3000
3000
FE00
FE00
ENDCHAR
STARTCHAR afii10083
ENCODING 1089
SWIDTH 600 0
DWIDTH 15 0
BBX 13 11 2 0
BITMAP
0FD8
3FF8
7070
6030
C030
C000
C000
C000
E070
7FF0
3FC0
ENDCHAR
STARTCHAR afii10084
ENCODING 1090
SWIDTH 600 0
DWIDTH 15 0
BBX 13 11 2 0
BITMAP
7FF8
7FF8
6318
C330
C630
0600
0600
0C00
0C00
3F00
3F00
ENDCHAR
STARTCHAR afii10085
ENCODING 1091
SWIDTH 600 0
DWIDTH 15 0
BBX 15 16 0 -5
BITMAP
1F3E
1F3E
0C0C
0C18
0C38
0630
0660
06C0
03C0
0380
0300
0600
0C00
1800
FE00
FE00
ENDCHAR
STARTCHAR afii10086
ENCODING 1092
SWIDTH 600 0
DWIDTH 15 0
BBX 14 21 2 -5
BITMAP
03C0
03C0
00C0
00C0
0180
0DB0
3FF8
73DC
618C
C30C
C30C
C30C
C618
EF38
7FF0
36C0
0600
0C00
0C00
3F00
3F00
ENDCHAR
STARTCHAR afii10087
ENCODING 1093
SWIDTH 600 0
DWIDTH 15 0
BBX 14 11 1 0
BITMAP
3E7C
3E7C
1830
0C60
06C0
0780
0F00
1980
30C0
F9F0
F9F0
ENDCHAR
STARTCHAR afii10088
ENCODING 1094
SWIDTH 600 0
DWIDTH 15 0
BBX 16 13 0 -2
BITMAP
3F3F
3F3F
0C0C
0C0C
1818
1818
1818
3030
3030
FFFC
FFFC
0018
0018
ENDCHAR
STARTCHAR afii10089
ENCODING 1095
SWIDTH 600 0
DWIDTH 15 0
BBX 14 11 2 0
BITMAP
FCFC
FCFC
3030
3030
3860
1FE0
0FE0
00C0
00C0
03F0
03F0
ENDCHAR
STARTCHAR afii10090
ENCODING 1096
SWIDTH 600 0
DWIDTH 15 0
BBX 18 11 0 0
BITMAP
3EF7C0
3EF7C0
0C6300
0C6300
18C600
18C600
18C600
318C00
318C00
FFFF00
FFFF00
ENDCHAR
STARTCHAR afii10091
ENCODING 1097
SWIDTH 600 0
DWIDTH 15 0
BBX 18 13 0 -2
BITMAP
3EF7C0
3EF7C0
0C6300
0C6300
18C600
18C600
18C600
318C00
318C00
FFFF00
FFFF00
000600
000600
ENDCHAR
STARTCHAR afii10092
ENCODING 1098
SWIDTH 600 0
DWIDTH 15 0
BBX 13 11 1 0
BITMAP
7F80
7F80
C600
C600
0FE0
0FF0
0C38
1818
1838
7FF0
7FE0
ENDCHAR
STARTCHAR afii10093
ENCODING 1099
SWIDTH 600 0
DWIDTH 15 0
BBX 17 11 0 0
BITMAP
3E0F80
3E0F80
180300
180300
3F0600
3F8600
31C600
60CC00
61CC00
FFBE00
FF3E00
ENDCHAR
STARTCHAR afii10094
ENCODING 1100
SWIDTH 600 0
DWIDTH 15 0
BBX 12 11 1 0
BITMAP
3F00
3F00
0C00
0C00
1FC0
1FE0
1870
3030
3070
FFE0
FFC0
ENDCHAR
STARTCHAR afii10095
ENCODING 1101
SWIDTH 600 0
DWIDTH 15 0
BBX 12 11 2 0
BITMAP
37C0
3FE0
7070
6030
0FF0
0FF0
0030
0060
C0E0
FFC0
7F00
ENDCHAR
STARTCHAR afii10096
ENCODING 1102
SWIDTH 600 0
DWIDTH 15 0
BBX 15 11 0 0
BITMAP
3C38
3CFC
19CE
1986
3F06
3F06
3306
630C
639C
F1F8
F0E0
ENDCHAR
STARTCHAR afii10097
ENCODING 1103
SWIDTH 600 0
DWIDTH 15 0
BBX 15 11 0 0
BITMAP
07FE
0FFE
1C18
1818
1C30
0FF0
0FF0
1C60
3860
F1F8
F1F8
ENDCHAR
STARTCHAR uni0450
ENCODING 1104
SWIDTH 600 0
DWIDTH 15 0
BBX 12 16 2 0
BITMAP
1800
0C00
0600
0300
0000
0FC0
3FE0
7070
6030
C030
FFF0
FFF0
C000
E060
7FE0
3F80
ENDCHAR
STARTCHAR afii10071
ENCODING 1105
SWIDTH 600 0
DWIDTH 15 0
BBX 12 14 2 0
BITMAP
18C0
18C0
0000
0FC0
3FE0
7070
6030
C030
FFF0
FFF0
C000
E060
7FE0
3F80
ENDCHAR
STARTCHAR afii10101
ENCODING 1108
SWIDTH 600 0
DWIDTH 15 0
BBX 13 11 2 0
BITMAP
0FD8
3FF8
7070
6030
FE30
FE00
C000
C000
E070
7FF0
3FC0
ENDCHAR
STARTCHAR afii10102
ENCODING 1109
SWIDTH 600 0
DWIDTH 15 0
BBX 12 11 2 0
BITMAP
0FB0
1FF0
3860
3860
1E00
0F80
03C0
60E0
60E0
FFC0
DF80
ENDCHAR
STARTCHAR afii10103
ENCODING 1110
SWIDTH 600 0
DWIDTH 15 0
BBX 10 16 2 0
BITMAP
01C0
03C0
0380
0000
0000
1F00
1F00
0300
0300
0600
0600
0600
0C00
0C00
FFC0
FFC0
ENDCHAR
STARTCHAR afii10104
ENCODING 1111
SWIDTH 600 0
DWIDTH 15 0
BBX 11 14 2 0
BITMAP
0C60
0C60
0000
1F00
1F00
0300
0300
0600
0600
0600
0C00
0C00
FFC0
FFC0
ENDCHAR
STARTCHAR afii10105
ENCODING 1112
SWIDTH 600 0
DWIDTH 15 0
BBX 12 21 0 -5
BITMAP
0070
00F0
00E0
0000
0000
1FE0
1FE0
0060
0060
00C0
00C0
00C0
0180
0180
0180
0300
0300
0300
0600
FE00
FC00
ENDCHAR
STARTCHAR afii10110
ENCODING 1118
SWIDTH 600 0
DWIDTH 15 0
BBX 15 20 0 -5
BITMAP
0330
03F0
01E0
0000
1F3E
1F3E
0C0C
0C18
0C38
0630
0660
06C0
03C0
0380
0300
0600
0C00
1800
FE00
FE00
ENDCHAR
STARTCHAR afii10050
ENCODING 1168
SWIDTH 600 0
DWIDTH 15 0
BBX 17 18 0 0
BITMAP
000180
000180
000300
1FFF00
1FFF00
060000
060000
0C0000
0C0000
0C0000
0C0000
180000
180000
180000
300000
300000
FF0000
FF0000
ENDCHAR
STARTCHAR afii10098
ENCODING 1169
SWIDTH 600 0
DWIDTH 15 0
BBX 13 13 2 0
BITMAP
0018
0018
3FF8
3FF8
0C00
0C00
1800
1800
1800
3000
3000
FE00
FE00
ENDCHAR
STARTCHAR uni04AA
ENCODING 1194
SWIDTH 600 0
DWIDTH 15 0
BBX 15 20 1 -5
BITMAP
03F6
0FFE
1E0E
380C
700C
6000
E000
C000
C000
C000
C000
E030
7070
7FE0
1F80
0600
0F00
0300
1F00
0E00
ENDCHAR
STARTCHAR uni04AB
ENCODING 1195
SWIDTH 600 0
DWIDTH 15 0
BBX 13 16 2 -5
BITMAP
0FD8
3FF8
7070
6030
C030
C000
C000
C000
E070
7FF0
3FC0
0C00
1E00
0600
3E00
1C00
ENDCHAR
STARTCHAR uni04AE
ENCODING 1198
SWIDTH 600 0
DWIDTH 15 0
BBX 14 15 3 0
BITMAP
FCFC
FCFC
7038
3070
38E0
19C0
1B80
0F00
0E00
0C00
0C00
1800
1800
FF00
FF00
ENDCHAR
STARTCHAR uni04C0
ENCODING 1216
SWIDTH 600 0
DWIDTH 15 0
BBX 13 15 2 0
BITMAP
1FF8
1FF8
0180
0180
0300
0300
0300
0600
0600
0600
0C00
0C00
0C00
FFC0
FFC0
ENDCHAR
STARTCHAR uni04D2
ENCODING 1234
SWIDTH 600 0
DWIDTH 15 0
BBX 14 18 0 0
BITMAP
0318
0318
0000
07E0
07E0
01E0
01B0
0330
0630
0630
0C30
0C38
1FF8
1FF8
3018
3018
FCFC
FCFC
ENDCHAR
STARTCHAR uni04D3
ENCODING 1235
SWIDTH 600 0
DWIDTH 15 0
BBX 12 14 1 0
BITMAP
0C60
0C60
0000
0FC0
1FE0
1870
0030
0FF0
3FE0
7060
C0C0
C1C0
FFF0
7EF0
ENDCHAR
STARTCHAR uni04D4
ENCODING 1236
SWIDTH 600 0
DWIDTH 15 0
BBX 19 15 -1 0
BITMAP
03FFE0
03FFE0
00D8C0
0198C0
01B000
033000
063300
067F00
0C7E00
1FE600
1FC000
30C300
30C300
FBFE00
FBFE00
ENDCHAR
STARTCHAR uni04D5
ENCODING 1237
SWIDTH 600 0
DWIDTH 15 0
BBX 15 11 0 0
BITMAP
0F38
3FFC
31CE
0186
1FFE
7FFE
6380
C300
C78C
FFFC
7CF0
ENDCHAR
STARTCHAR uni04E6
ENCODING 1254
SWIDTH 600 0
DWIDTH 15 0
BBX 14 18 1 0
BITMAP
0630
0630
0000
07E0
0FF8
1C3C
301C
301C
600C
E00C
C00C
C01C
C018
C038
E070
71E0
7FC0
1F00
ENDCHAR
STARTCHAR uni04E7
ENCODING 1255
SWIDTH 600 0
DWIDTH 15 0
BBX 12 14 2 0
BITMAP
0C60
0C60
0000
0FC0
3FE0
7070
6030
C030
C030
C030
C060
E0E0
7FC0
3F00
ENDCHAR
ENDFONT
